<?xml version="1.0" standalone="no"?><!DOCTYPE svg PUBLIC "-//W3C//DTD SVG 1.1//EN" "http://www.w3.org/Graphics/SVG/1.1/DTD/svg11.dtd"><svg t="1554170066090" class="icon" style="" viewBox="0 0 1024 1024" version="1.1" xmlns="http://www.w3.org/2000/svg" p-id="1986" xmlns:xlink="http://www.w3.org/1999/xlink" width="200" height="200"><defs><style type="text/css"></style></defs><path d="M512 832C128 832 0 512 0 512S128 192 512 192s512 320 512 320-128 320-512 320z m0-512c-106.048 0-192 85.952-192 192s85.952 192 192 192 192-85.952 192-192-85.952-192-192-192z m0 320c-70.656 0-128-57.344-128-128h128l-90.496-90.496A127.36 127.36 0 0 1 512 384c70.656 0 128 57.344 128 128s-57.344 128-128 128z" fill="" p-id="1987"></path></svg>