<?xml version="1.0" standalone="no"?><!DOCTYPE svg PUBLIC "-//W3C//DTD SVG 1.1//EN" "http://www.w3.org/Graphics/SVG/1.1/DTD/svg11.dtd"><svg t="1554111577357" class="icon" style="" viewBox="0 0 1024 1024" version="1.1" xmlns="http://www.w3.org/2000/svg" p-id="1380" xmlns:xlink="http://www.w3.org/1999/xlink" width="200" height="200"><defs><style type="text/css"></style></defs><path d="M511.888971 131.844817c-201.839984 0-365.489158 163.626661-365.489158 365.489158 0 201.862497 163.649174 365.490182 365.489158 365.490182s365.489158-163.626661 365.489158-365.490182C877.37813 295.471478 713.729979 131.844817 511.888971 131.844817L511.888971 131.844817zM690.072163 395.900795 462.656687 624.699782c-0.814552 1.225921-1.763157 2.397606-2.843768 3.479241-8.934486 8.911974-23.400966 8.911974-32.31294 0L314.432831 515.112897c-8.911974-8.911974-8.911974-23.378453 0-32.301683 8.911974-8.934486 23.378453-8.934486 32.311917 0l96.570429 96.570429 214.444047-215.782531c8.92323-8.92323 23.379477-8.92323 32.31294 0C698.984137 372.511085 698.984137 386.977565 690.072163 395.900795L690.072163 395.900795zM690.072163 395.900795" p-id="1381" fill="#1afa29"></path></svg>